HIERARCHY
ROOT joint_Root
{
	OFFSET 0.0 0.0 0.0
	CHANNELS 6 Xposition Yposition Zposition Zrotation Xrotation Yrotation 
	JOINT Hips
	{
		OFFSET 4.5925 91.4895 -427.239
		CHANNELS 6 Xposition Yposition Zposition Zrotation Xrotation Yrotation 
		JOINT Spine
		{
			OFFSET 15.7357 0.0 0.0
			CHANNELS 6 Xposition Yposition Zposition Zrotation Xrotation Yrotation 
			JOINT Chest
			{
				OFFSET 8.98455 -0.406207 0.0
				CHANNELS 6 Xposition Yposition Zposition Zrotation Xrotation Yrotation 
				JOINT Neck
				{
					OFFSET 16.3773 0.0 0.0
					CHANNELS 6 Xposition Yposition Zposition Zrotation Xrotation Yrotation 
					JOINT Head
					{
						OFFSET 6.45672 0.0 0.0
						CHANNELS 6 Xposition Yposition Zposition Zrotation Xrotation Yrotation 
						End Site
						{
							OFFSET 0.0 0.0 0.0
						}
					}
				}
				JOINT Shoulder_L
				{
					OFFSET 12.9942 -0.242716 4.98039
					CHANNELS 6 Xposition Yposition Zposition Zrotation Xrotation Yrotation 
					JOINT UpperArm_L
					{
						OFFSET 5.34809 0.0 0.0
						CHANNELS 6 Xposition Yposition Zposition Zrotation Xrotation Yrotation 
						JOINT LowerArm_L
						{
							OFFSET 24.3286 1.87007e-05 0.0
							CHANNELS 6 Xposition Yposition Zposition Zrotation Xrotation Yrotation 
							JOINT Hand_L
							{
								OFFSET 22.2916 0.0 0.0
								CHANNELS 6 Xposition Yposition Zposition Zrotation Xrotation Yrotation 
								End Site
								{
									OFFSET 0.0 0.0 0.0
								}
							}
						}
					}
				}
				JOINT Shoulder_R
				{
					OFFSET 12.9945 -0.242716 -4.98039
					CHANNELS 6 Xposition Yposition Zposition Zrotation Xrotation Yrotation 
					JOINT UpperArm_R
					{
						OFFSET -5.34813 0.0 0.0
						CHANNELS 6 Xposition Yposition Zposition Zrotation Xrotation Yrotation 
						JOINT LowerArm_R
						{
							OFFSET -24.3289 0.000322201 0.0
							CHANNELS 6 Xposition Yposition Zposition Zrotation Xrotation Yrotation 
							JOINT Hand_R
							{
								OFFSET -22.2915 -0.000108084 0.0
								CHANNELS 6 Xposition Yposition Zposition Zrotation Xrotation Yrotation 
								End Site
								{
									OFFSET 0.0 0.0 0.0
								}
							}
						}
					}
				}
			}
		}
		JOINT UpperLeg_L
		{
			OFFSET -2.19248 -6.46944 0.0
			CHANNELS 6 Xposition Yposition Zposition Zrotation Xrotation Yrotation 
			JOINT LowerLeg_L
			{
				OFFSET 39.0811 0.0 -1.23785e-05
				CHANNELS 6 Xposition Yposition Zposition Zrotation Xrotation Yrotation 
				JOINT Foot_L
				{
					OFFSET 40.9854 0.0 -1.26872e-05
					CHANNELS 6 Xposition Yposition Zposition Zrotation Xrotation Yrotation 
					JOINT Toes_L
					{
						OFFSET 11.7543 0.0 0.0
						CHANNELS 6 Xposition Yposition Zposition Zrotation Xrotation Yrotation 
						End Site
						{
							OFFSET 0.0 0.0 0.0
						}
					}
				}
			}
		}
		JOINT UpperLeg_R
		{
			OFFSET -2.19251 6.46944 0.0
			CHANNELS 6 Xposition Yposition Zposition Zrotation Xrotation Yrotation 
			JOINT LowerLeg_R
			{
				OFFSET -39.0811 -0.00228153 -0.0401928
				CHANNELS 6 Xposition Yposition Zposition Zrotation Xrotation Yrotation 
				JOINT Foot_R
				{
					OFFSET -40.9854 0.0 0.0
					CHANNELS 6 Xposition Yposition Zposition Zrotation Xrotation Yrotation 
					JOINT Toes_R
					{
						OFFSET -11.7543 0.0 0.0
						CHANNELS 6 Xposition Yposition Zposition Zrotation Xrotation Yrotation 
						End Site
						{
							OFFSET 0.0 0.0 0.0
						}
					}
				}
			}
		}
	}
}
MOTION
Frames:	4
Frame Time:	0.0333333
0.000000 0.000000 0.000000 0.000000 0.000000 -0.000000 -93.504000 90.591600 173.580000 87.339800 85.076100 1.602390 15.735700 0.000005 -0.000001 95.686500 80.289100 -96.407000 8.984550 -0.406207 -0.000000 11.577100 1.884790 -1.631580 16.377300 -0.000001 -0.000001 2.094790 -3.011820 1.636840 6.456720 -0.000001 -0.000000 -4.312660 -3.060350 1.493760 12.994200 -0.242716 4.980390 -91.229500 4.215210 -73.722300 5.348090 -0.000007 -0.000001 -72.023800 21.841100 -5.577580 24.328600 0.000019 0.000005 10.879200 23.465200 -25.764800 22.291600 -0.000001 0.000005 11.752500 5.202270 2.662220 12.994500 -0.242716 -4.980390 88.766100 8.250170 -81.463500 -5.348130 -0.000001 -0.000004 -53.845600 22.346900 -26.320400 -24.328900 0.000322 -0.000009 1.879030 2.894220 -33.028900 -22.291500 -0.000108 -0.000004 18.448600 5.409350 -3.243670 -2.192480 -6.469440 -0.000000 179.826000 -10.238500 -26.242100 39.081100 -0.000007 -0.000012 0.061748 -0.144671 23.113600 40.985400 -0.000006 -0.000013 0.827875 2.415180 -54.150200 11.754300 -0.000000 0.000003 0.000314 0.005460 -16.355700 -2.192510 6.469440 -0.000001 176.287000 21.787300 175.197000 -39.081100 -0.002282 -0.040193 -0.152196 0.296030 27.712900 -40.985400 0.000008 0.000006 4.266670 11.698200 -74.112400 -11.754300 -0.000006 -0.000006 -0.002352 -0.033033 -17.916400
0.000000 0.000000 0.000000 0.000000 0.000000 -0.000000 -90.629000 90.088600 173.052000 91.468600 83.829500 -2.105930 15.735700 0.000005 -0.000001 96.720200 80.291800 -97.859900 8.984550 -0.406207 -0.000000 11.546500 2.216160 -2.502730 16.377300 -0.000001 -0.000001 2.498410 -2.953610 1.571580 6.456720 -0.000001 -0.000000 -3.909320 -3.122410 1.570860 12.994200 -0.242716 4.980390 -91.249700 4.227530 -73.515100 5.348090 -0.000007 -0.000001 -72.268600 20.824700 -4.612360 24.328600 0.000019 0.000005 10.325200 24.818100 -23.462900 22.291600 -0.000001 0.000005 11.539600 5.181420 3.180990 12.994500 -0.242716 -4.980390 88.760300 8.219070 -81.392200 -5.348130 -0.000001 -0.000004 -53.761400 22.640300 -26.533600 -24.328900 0.000322 -0.000009 1.789950 2.728420 -33.301100 -22.291500 -0.000108 -0.000004 18.475700 5.410710 -3.288840 -2.192480 -6.469440 -0.000000 179.723000 -9.554280 -26.413100 39.081100 -0.000007 -0.000012 0.011097 -0.021822 26.952500 40.985400 -0.000006 -0.000013 0.873505 1.374160 -51.621700 11.754300 -0.000000 0.000003 -0.000000 -0.000003 -16.577600 -2.192510 6.469440 -0.000001 174.980000 19.807700 177.180000 -39.081100 -0.002282 -0.040193 0.014423 -0.020496 28.477700 -40.985400 0.000008 0.000006 6.159000 10.110400 -76.710600 -11.754300 -0.000006 -0.000006 -0.002575 -0.035698 -18.024800
0.000000 0.000000 0.000000 0.000000 0.000000 -0.000000 -87.713800 89.633300 172.511000 93.705000 82.600700 -4.118340 15.735700 0.000005 -0.000001 97.427800 80.438000 -98.970500 8.984550 -0.406207 -0.000000 11.239200 2.406490 -3.321150 16.377300 -0.000001 -0.000001 2.686930 -2.801310 1.363470 6.456720 -0.000001 -0.000000 -3.218200 -3.151860 1.673770 12.994200 -0.242716 4.980390 -91.328100 4.418690 -73.253200 5.348090 -0.000007 -0.000001 -72.036600 19.957400 -3.664980 24.328600 0.000019 0.000005 9.840140 25.630200 -21.850100 22.291600 -0.000001 0.000005 11.612200 5.172790 3.392390 12.994500 -0.242716 -4.980390 88.698400 8.469310 -81.230100 -5.348130 -0.000001 -0.000004 -53.580500 23.480400 -26.296700 -24.328900 0.000322 -0.000009 1.861550 2.805790 -33.598400 -22.291500 -0.000108 -0.000004 18.471500 5.412570 -3.350500 -2.192480 -6.469440 -0.000000 179.467000 -9.641270 -26.884400 39.081100 -0.000007 -0.000012 -0.073267 0.115315 32.430900 40.985400 -0.000006 -0.000013 0.890410 0.534926 -56.407600 11.754300 -0.000000 0.000003 -0.000039 -0.000460 -16.595500 -2.192510 6.469440 -0.000001 173.803000 17.126200 177.486000 -39.081100 -0.002282 -0.040193 0.015809 -0.020637 31.223600 -40.985400 0.000008 0.000006 5.436240 8.592470 -76.170400 -11.754300 -0.000006 -0.000006 -0.455962 -0.568892 -19.602500
0.000000 0.000000 0.000000 0.000000 0.000000 -0.000000 -84.916200 89.320500 172.047000 91.564600 82.316000 -1.231430 15.735700 0.000005 -0.000001 96.960300 80.344600 -98.671400 8.984550 -0.406207 -0.000000 11.445400 2.266570 -3.648320 16.377300 -0.000001 -0.000001 2.664890 -2.744030 0.974174 6.456720 -0.000001 -0.000000 -2.909620 -3.189000 1.951470 12.994200 -0.242716 4.980390 -91.285800 4.254750 -73.168500 5.348090 -0.000007 -0.000001 -71.669800 19.161600 -3.486460 24.328600 0.000019 0.000005 9.522180 26.081000 -20.883700 22.291600 -0.000001 0.000005 11.520400 5.160310 3.695560 12.994500 -0.242716 -4.980390 88.678700 8.501380 -81.132300 -5.348130 -0.000001 -0.000004 -54.708400 23.871100 -25.149600 -24.328900 0.000322 -0.000009 2.065690 3.051760 -34.131800 -22.291500 -0.000108 -0.000004 18.554600 5.414480 -3.413940 -2.192480 -6.469440 -0.000000 179.687000 -9.727030 -25.994100 39.081100 -0.000007 -0.000012 -0.133371 0.182247 36.197600 40.985400 -0.000006 -0.000013 1.111560 0.380512 -60.317500 11.754300 -0.000000 0.000003 -0.000099 -0.001024 -16.616800 -2.192510 6.469440 -0.000001 173.451000 15.000300 176.469000 -39.081100 -0.002282 -0.040193 0.031777 -0.037623 37.136100 -40.985400 0.000008 0.000006 5.164200 6.296110 -74.133500 -11.754300 -0.000006 -0.000006 -0.017992 -0.155900 -22.939000
